<?xml version="1.0" standalone="no"?>
<!DOCTYPE svg PUBLIC "-//W3C//DTD SVG 20010904//EN"
 "http://www.w3.org/TR/2001/REC-SVG-20010904/DTD/svg10.dtd">
<svg version="1.0" xmlns="http://www.w3.org/2000/svg"
 width="512.000000pt" height="512.000000pt" viewBox="0 0 512.000000 512.000000"
 preserveAspectRatio="xMidYMid meet">

<g transform="translate(0.000000,512.000000) scale(0.100000,-0.100000)"
fill="#000000" stroke="none">
<path d="M1945 4935 l-25 -24 0 -293 0 -293 -108 -97 c-210 -190 -212 -191
-212 -227 0 -21 9 -41 25 -56 22 -23 32 -25 120 -25 l95 0 0 -495 0 -496 25
-24 24 -25 671 0 671 0 24 25 25 24 0 496 0 495 95 0 c88 0 98 2 120 25 34 33
33 77 -2 114 -16 16 -203 188 -418 382 -214 194 -411 372 -437 396 -66 60 -90
58 -170 -13 l-63 -56 -5 77 c-8 116 -6 115 -242 115 -187 0 -189 0 -213 -25z
m295 -226 l0 -92 -66 -61 c-102 -93 -94 -100 -94 84 l0 160 80 0 80 0 0 -91z
m658 -324 l330 -300 -334 -3 c-184 -1 -484 -1 -668 0 l-334 3 332 302 c182
166 334 301 337 300 4 -1 155 -137 337 -302z m222 -905 l0 -440 -120 0 -120 0
0 255 0 256 -25 24 -24 25 -271 0 -271 0 -24 -25 -25 -24 0 -256 0 -255 -120
0 -120 0 0 440 0 440 560 0 560 0 0 -440z m-400 -240 l0 -200 -160 0 -160 0 0
200 0 200 160 0 160 0 0 -200z"/>
<path d="M905 2855 l-25 -24 0 -293 0 -293 -108 -97 c-210 -190 -212 -191
-212 -227 0 -21 9 -41 25 -56 22 -23 32 -25 120 -25 l95 0 0 -495 0 -496 25
-24 24 -25 671 0 671 0 24 25 25 24 0 496 0 495 95 0 c88 0 98 2 120 25 34 33
33 77 -2 114 -16 16 -203 188 -418 382 -214 194 -411 372 -437 396 -66 60 -90
58 -170 -13 l-63 -56 -5 77 c-8 116 -6 115 -242 115 -187 0 -189 0 -213 -25z
m295 -226 l0 -92 -66 -61 c-102 -93 -94 -100 -94 84 l0 160 80 0 80 0 0 -91z
m658 -324 l330 -300 -334 -3 c-184 -1 -484 -1 -668 0 l-334 3 332 302 c182
166 334 301 337 300 4 -1 155 -137 337 -302z m222 -905 l0 -440 -120 0 -120 0
0 255 0 256 -25 24 -24 25 -271 0 -271 0 -24 -25 -25 -24 0 -256 0 -255 -120
0 -120 0 0 440 0 440 560 0 560 0 0 -440z m-400 -240 l0 -200 -160 0 -160 0 0
200 0 200 160 0 160 0 0 -200z"/>
<path d="M3789 2861 c-20 -16 -25 -31 -29 -96 l-5 -77 -63 56 c-80 71 -104 73
-170 13 -26 -24 -222 -202 -437 -396 -214 -194 -402 -366 -417 -382 -36 -37
-37 -81 -3 -114 22 -23 32 -25 120 -25 l95 0 0 -495 0 -496 25 -24 24 -25 671
0 671 0 24 25 25 24 0 496 0 495 95 0 c88 0 98 2 120 25 16 15 25 35 25 56 0
36 -2 37 -212 227 l-108 97 0 293 0 293 -25 24 c-24 25 -26 25 -213 25 -172 0
-192 -2 -213 -19z m291 -301 c0 -184 8 -177 -94 -84 l-66 61 0 92 0 91 80 0
80 0 0 -160z m-142 -255 l330 -300 -334 -3 c-184 -1 -484 -1 -668 0 l-334 3
332 302 c182 166 334 301 337 300 4 -1 155 -137 337 -302z m222 -905 l0 -440
-120 0 -120 0 0 255 0 256 -25 24 -24 25 -271 0 -271 0 -24 -25 -25 -24 0
-256 0 -255 -120 0 -120 0 0 440 0 440 560 0 560 0 0 -440z m-400 -240 l0
-200 -160 0 -160 0 0 200 0 200 160 0 160 0 0 -200z"/>
<path d="M500 1111 c-153 -55 -256 -109 -322 -170 -66 -61 -84 -90 -94 -150
-21 -132 99 -255 346 -356 478 -193 1592 -309 2567 -265 849 39 1498 155 1827
328 97 51 188 142 206 204 14 52 8 113 -15 157 -26 50 -128 135 -215 178 -77
37 -289 117 -295 111 -6 -6 -46 -150 -43 -153 2 -1 41 -15 88 -30 183 -59 330
-151 330 -205 0 -57 -142 -144 -340 -208 -977 -320 -3154 -305 -4037 28 -167
63 -263 129 -263 182 0 53 149 144 330 203 47 15 86 29 88 30 5 5 -41 155 -47
154 -3 0 -53 -17 -111 -38z"/>
</g>
</svg>
