<?xml version="1.0" standalone="no"?>
<!DOCTYPE svg PUBLIC "-//W3C//DTD SVG 20010904//EN"
 "http://www.w3.org/TR/2001/REC-SVG-20010904/DTD/svg10.dtd">
<svg version="1.0" xmlns="http://www.w3.org/2000/svg"
 width="512.000000pt" height="512.000000pt" viewBox="0 0 512.000000 512.000000"
 preserveAspectRatio="xMidYMid meet">

<g transform="translate(0.000000,512.000000) scale(0.100000,-0.100000)"
fill="#000000" stroke="none">
<path d="M2380 5114 c-19 -2 -78 -9 -130 -14 -330 -36 -695 -160 -990 -336
-375 -224 -680 -529 -904 -904 -175 -292 -290 -632 -338 -990 -16 -124 -16
-477 1 -610 54 -432 215 -847 463 -1192 l56 -78 -25 -60 c-60 -150 -30 -303
82 -415 62 -62 126 -94 215 -108 261 -40 485 212 416 471 -57 212 -284 332
-494 259 l-42 -15 -59 82 c-214 299 -359 673 -412 1066 -20 144 -17 480 4 620
56 360 176 675 372 970 233 352 540 624 920 813 225 112 451 183 715 224 158
24 511 24 660 -1 58 -9 131 -20 162 -23 54 -5 59 -4 87 25 51 50 38 122 -28
156 -53 28 -296 57 -501 61 -107 2 -211 1 -230 -1z m-1440 -4176 c132 -67 132
-249 0 -316 -55 -28 -101 -28 -158 -1 -134 65 -133 259 2 320 55 25 102 24
156 -3z"/>
<path d="M3424 4922 c-51 -41 -57 -97 -15 -144 24 -27 36 -33 71 -33 72 0 121
76 89 138 -18 35 -51 57 -89 57 -19 0 -45 -8 -56 -18z"/>
<path d="M4160 4704 c-197 -53 -318 -264 -266 -462 57 -212 284 -332 494 -259
l42 15 59 -82 c214 -299 359 -673 412 -1066 20 -144 17 -480 -4 -620 -56 -360
-176 -675 -372 -970 -233 -352 -540 -624 -920 -813 -225 -112 -451 -183 -715
-224 -154 -24 -485 -23 -657 1 -111 15 -126 15 -153 1 -36 -19 -50 -43 -50
-89 0 -85 59 -106 355 -127 970 -67 1877 410 2379 1251 175 292 290 632 338
990 16 124 16 477 -1 610 -54 432 -215 847 -463 1192 l-56 78 25 60 c60 150
30 303 -82 415 -57 57 -119 91 -195 105 -69 13 -103 12 -170 -6z m178 -205
c134 -65 133 -259 -2 -320 -55 -25 -102 -24 -156 4 -132 66 -132 248 0 315 55
28 101 28 158 1z"/>
<path d="M2471 4433 c-82 -49 -211 -170 -263 -246 -51 -76 -101 -184 -122
-267 -24 -91 -32 -253 -17 -346 7 -41 11 -78 9 -80 -3 -2 -27 3 -54 12 -77 24
-292 30 -387 10 -102 -21 -131 -37 -150 -83 -45 -113 -48 -365 -7 -498 31 -99
74 -182 136 -265 30 -39 54 -73 54 -75 0 -2 -19 -6 -42 -10 -74 -12 -124 -41
-141 -83 -45 -111 -48 -367 -7 -496 45 -142 103 -239 204 -345 87 -89 170
-151 268 -195 124 -57 194 -71 361 -71 l147 0 0 -332 c0 -357 2 -373 51 -399
42 -21 75 -17 111 15 l33 29 3 344 3 343 147 0 c166 0 236 14 360 71 98 44
181 106 268 195 101 106 159 203 204 345 41 129 38 385 -7 496 -17 42 -67 71
-140 83 -24 4 -43 9 -43 11 0 2 22 33 49 67 58 74 111 175 141 272 42 136 37
393 -10 501 -20 47 -57 66 -166 85 -86 15 -301 6 -368 -15 -27 -9 -51 -14 -53
-12 -2 2 1 34 8 72 16 93 6 279 -21 372 -24 87 -78 196 -130 266 -48 66 -160
171 -233 220 -83 55 -117 56 -196 9z m172 -243 c135 -124 205 -273 214 -455 8
-165 -32 -302 -126 -429 -38 -51 -152 -156 -169 -156 -4 0 -36 24 -70 53 -141
118 -217 269 -229 452 -8 122 15 234 69 345 33 67 58 102 124 167 46 47 91 83
102 83 10 0 49 -27 85 -60z m-688 -875 c212 -50 411 -238 477 -450 18 -55 22
-96 23 -192 0 -80 -4 -126 -12 -134 -6 -6 -51 -14 -100 -16 -214 -13 -407 73
-546 242 -100 121 -147 250 -147 403 0 118 7 150 34 155 50 10 216 5 271 -8z
m1502 2 c17 -17 16 -229 -2 -296 -79 -307 -365 -516 -678 -498 -49 2 -93 9
-98 14 -5 5 -12 48 -16 94 -8 117 15 229 70 339 79 159 257 303 428 346 58 14
281 15 296 1z m-1495 -936 c176 -45 311 -148 411 -313 61 -102 82 -182 82
-325 0 -81 -4 -126 -12 -134 -20 -20 -188 -23 -273 -5 -216 45 -417 224 -491
436 -24 70 -37 224 -25 304 8 52 9 53 142 55 61 1 116 -5 166 -18z m1495 6 c4
-5 8 -70 8 -145 0 -118 -3 -146 -23 -202 -35 -97 -87 -176 -172 -260 -135
-134 -299 -197 -488 -187 -51 2 -98 9 -103 14 -5 5 -12 48 -16 94 -18 266 136
525 380 640 38 17 91 37 120 45 57 14 280 15 294 1z"/>
<path d="M1613 368 c-68 -18 -88 -110 -37 -162 36 -35 91 -36 133 0 26 21 31
33 31 69 0 71 -56 111 -127 93z"/>
</g>
</svg>
