<?xml version="1.0" standalone="no"?>
<!DOCTYPE svg PUBLIC "-//W3C//DTD SVG 20010904//EN"
 "http://www.w3.org/TR/2001/REC-SVG-20010904/DTD/svg10.dtd">
<svg version="1.0" xmlns="http://www.w3.org/2000/svg"
 width="512.000000pt" height="512.000000pt" viewBox="0 0 512.000000 512.000000"
 preserveAspectRatio="xMidYMid meet">

<g transform="translate(0.000000,512.000000) scale(0.100000,-0.100000)"
fill="#000000" stroke="none">
<path d="M3040 5100 c-18 -18 -20 -33 -20 -160 l0 -139 -42 -11 c-125 -30
-255 -131 -315 -245 -55 -105 -56 -117 -62 -467 l-6 -327 -300 231 c-299 230
-345 261 -374 251 -9 -3 -71 -47 -138 -97 -144 -107 -162 -138 -110 -193 35
-39 66 -30 168 48 84 65 94 71 113 59 20 -12 469 -353 490 -372 6 -4 -221 -8
-504 -8 l-515 0 53 46 c53 47 63 74 42 113 -15 29 -64 45 -92 30 -33 -17 -270
-197 -290 -221 -16 -18 -18 -53 -18 -397 l0 -376 -187 188 c-102 103 -194 192
-204 198 -10 5 -30 7 -43 3 -15 -3 -133 -117 -288 -276 l-263 -271 -3 -434 -3
-433 -29 0 c-41 0 -76 -18 -89 -47 -16 -35 -14 -49 12 -78 l22 -26 424 -6 423
-6 -6 -46 c-23 -158 -25 -194 -16 -242 21 -108 93 -199 196 -246 l54 -24 0
-128 c0 -115 2 -131 21 -155 23 -30 72 -35 105 -12 17 13 20 31 24 156 l5 142
52 20 c107 39 192 158 201 278 4 57 -8 171 -25 238 l-5 22 1063 0 c585 0 1392
3 1793 7 689 6 730 7 748 25 23 23 23 69 0 98 -13 16 -32 24 -70 28 l-52 5 0
108 c0 126 -12 149 -75 149 -63 0 -75 -23 -75 -150 l0 -110 -185 0 -185 0 0
418 c-1 302 -4 425 -13 445 -8 18 -92 85 -245 197 l-234 170 -194 0 -194 0 0
275 0 275 625 0 625 0 0 -639 c0 -609 1 -640 19 -662 26 -32 86 -32 112 0 18
22 19 54 19 706 0 376 -3 691 -6 700 -4 9 -153 143 -333 297 -179 155 -343
297 -364 315 -72 64 -68 65 -399 -220 l-293 -254 -5 276 c-5 249 -8 282 -27
333 -57 154 -189 276 -340 317 l-41 11 -4 141 c-3 134 -4 142 -27 160 -30 25
-76 24 -101 -1z m198 -479 c24 -12 61 -38 82 -57 40 -36 104 -149 94 -165 -3
-5 -149 -9 -325 -9 -353 0 -334 -4 -305 65 33 77 109 148 194 180 58 23 205
15 260 -14z m192 -966 l0 -585 -178 0 -178 0 -158 -120 c-87 -66 -160 -120
-162 -120 -2 0 -4 317 -4 705 l0 705 340 0 340 0 0 -585z m1044 315 l226 -195
-244 -3 c-135 -1 -357 -1 -495 0 l-250 3 246 212 c243 208 248 211 269 195 12
-9 124 -105 248 -212z m-1874 -1290 l0 -840 -569 0 -568 0 -32 89 c-37 103
-89 195 -131 232 l-30 25 0 667 0 667 665 0 665 0 0 -840z m-1780 273 c64 -65
133 -137 155 -160 l39 -43 -313 0 -313 0 154 160 c84 88 155 160 158 160 3 0
57 -53 120 -117z m3212 -115 l113 -83 -294 -3 -294 -2 -96 72 c-52 40 -102 78
-111 85 -12 10 46 12 277 13 l293 0 112 -82z m-749 -68 l166 -125 0 -402 1
-403 -59 0 -59 0 -4 143 c-3 121 -7 148 -25 182 -27 51 -57 79 -113 104 -79
36 -184 18 -248 -42 -55 -51 -66 -92 -70 -244 l-4 -143 -59 0 -59 0 0 398 0
398 173 131 c94 73 177 131 183 130 6 -1 86 -58 177 -127z m-2163 -376 l0
-207 -41 -44 c-43 -47 -94 -148 -125 -245 l-18 -58 -328 0 -328 0 0 380 0 380
420 0 420 0 0 -206z m3190 -174 l0 -380 -355 0 -355 0 0 380 0 380 355 0 355
0 0 -380z m-1155 -105 c24 -23 25 -30 25 -150 l0 -125 -81 0 -81 0 4 131 c3
123 4 132 27 150 32 26 77 24 106 -6z m-1936 -87 c53 -83 108 -248 141 -421
34 -180 25 -234 -46 -297 l-39 -34 -5 137 c-5 146 -10 160 -61 172 -20 5 -34
0 -55 -18 -29 -25 -29 -27 -34 -159 l-5 -133 -41 41 c-58 58 -68 103 -49 230
9 54 29 150 46 213 37 140 103 291 127 291 4 0 14 -10 21 -22z"/>
<path d="M3038 3940 c-44 -13 -87 -49 -108 -90 -18 -35 -20 -60 -20 -229 l0
-190 26 -20 c24 -19 40 -21 158 -21 188 0 178 -14 174 244 l-3 203 -29 37
c-47 62 -125 88 -198 66z m66 -146 c13 -5 16 -26 16 -130 l0 -124 -30 0 -30 0
0 118 c0 78 4 122 12 130 14 14 12 14 32 6z"/>
<path d="M1511 3284 c-20 -25 -21 -39 -21 -239 0 -200 1 -214 21 -239 26 -33
79 -36 109 -6 19 19 20 33 20 245 0 212 -1 226 -20 245 -30 30 -83 27 -109 -6z"/>
<path d="M1881 3284 c-20 -25 -21 -39 -21 -239 0 -200 1 -214 21 -239 26 -33
79 -36 109 -6 19 19 20 33 20 245 0 212 -1 226 -20 245 -30 30 -83 27 -109 -6z"/>
<path d="M2251 3284 c-20 -25 -21 -39 -21 -239 0 -200 1 -214 21 -239 26 -33
79 -36 109 -6 19 19 20 33 20 245 0 212 -1 226 -20 245 -30 30 -83 27 -109 -6z"/>
<path d="M1511 2544 c-20 -25 -21 -39 -21 -239 0 -200 1 -214 21 -239 26 -33
79 -36 109 -6 19 19 20 33 20 245 0 212 -1 226 -20 245 -30 30 -83 27 -109 -6z"/>
<path d="M1881 2544 c-20 -25 -21 -39 -21 -239 0 -200 1 -214 21 -239 26 -33
79 -36 109 -6 19 19 20 33 20 245 0 212 -1 226 -20 245 -30 30 -83 27 -109 -6z"/>
<path d="M2251 2544 c-20 -25 -21 -39 -21 -239 0 -200 1 -214 21 -239 26 -33
79 -36 109 -6 19 19 20 33 20 245 0 212 -1 226 -20 245 -30 30 -83 27 -109 -6z"/>
<path d="M3050 2620 c-65 -65 31 -172 98 -110 48 45 16 130 -48 130 -17 0 -39
-9 -50 -20z"/>
<path d="M476 2369 c-26 -20 -26 -21 -26 -160 0 -126 2 -141 20 -159 22 -22
60 -26 90 -10 28 15 40 65 40 170 0 112 -11 153 -46 169 -35 16 -47 14 -78
-10z"/>
<path d="M835 2365 c-24 -23 -25 -29 -25 -158 0 -127 1 -135 23 -155 31 -29
72 -28 102 3 24 23 25 29 25 155 0 126 -1 132 -25 155 -13 14 -36 25 -50 25
-14 0 -37 -11 -50 -25z"/>
<path d="M3774 2448 c-32 -15 -44 -51 -44 -128 0 -80 12 -113 47 -129 34 -16
47 -14 77 10 25 20 26 24 26 119 0 95 -1 99 -26 119 -29 23 -48 25 -80 9z"/>
<path d="M4056 2439 c-25 -20 -26 -24 -26 -119 0 -95 1 -99 26 -119 35 -27 57
-26 91 3 27 23 28 28 28 116 0 88 -1 93 -28 116 -34 29 -56 30 -91 3z"/>
<path d="M3775 3465 c-24 -23 -25 -30 -25 -139 0 -112 1 -115 26 -135 33 -26
65 -27 95 -2 22 18 24 28 27 121 4 114 -7 156 -45 171 -37 14 -52 11 -78 -16z"/>
<path d="M4153 3466 c-26 -23 -28 -30 -32 -112 -4 -105 9 -156 44 -172 36 -17
48 -15 79 9 25 20 26 23 26 139 0 116 -1 119 -26 139 -35 27 -57 26 -91 -3z"/>
<path d="M4536 3469 c-25 -20 -26 -23 -26 -139 0 -116 1 -119 26 -139 33 -26
65 -27 95 -2 22 18 24 28 27 121 4 113 -6 151 -44 169 -35 16 -48 14 -78 -10z"/>
<path d="M4315 1562 c-30 -19 -95 -87 -95 -100 0 -4 -7 -15 -14 -24 -10 -14
-55 -23 -202 -43 -631 -86 -1171 -249 -1709 -516 -217 -107 -238 -123 -237
-170 1 -34 38 -79 65 -79 7 0 109 49 227 108 454 229 914 379 1460 476 111 20
312 47 316 43 2 -2 -45 -216 -61 -272 -1 -6 -47 -28 -101 -49 -429 -166 -843
-453 -1102 -764 -62 -75 -69 -117 -26 -151 41 -33 70 -27 112 22 162 190 433
418 650 547 101 60 321 170 408 203 l42 16 6 -42 c17 -106 109 -219 207 -254
l49 -18 0 -137 0 -137 27 -21 c20 -16 36 -20 58 -16 55 12 60 24 63 176 l3
139 37 12 c137 45 219 188 210 370 l-3 77 40 6 c22 3 100 8 174 12 151 8 171
17 171 78 0 26 -7 40 -27 56 -27 21 -34 22 -153 16 -69 -4 -150 -9 -180 -12
l-56 -6 -23 83 c-14 46 -26 90 -29 97 -3 9 42 12 206 12 197 0 211 1 236 21
33 26 36 79 6 109 -19 19 -33 20 -269 20 l-249 0 -22 35 c-51 82 -150 118
-215 77z m120 -212 c82 -162 153 -528 116 -600 -16 -29 -71 -90 -83 -90 -4 0
-8 56 -8 125 0 120 -1 127 -25 150 -30 31 -71 32 -102 3 -22 -20 -23 -29 -23
-150 0 -86 -4 -128 -11 -128 -22 0 -77 67 -90 109 -10 34 -10 62 -1 136 22
178 101 433 155 501 20 25 21 26 35 8 7 -11 24 -39 37 -64z"/>
<path d="M265 1381 c-73 -44 -142 -170 -195 -356 -34 -122 -70 -315 -70 -378
0 -137 100 -280 223 -318 l37 -12 0 -132 c0 -156 10 -179 75 -179 65 0 75 23
75 178 l0 131 54 23 c105 46 173 129 197 242 14 66 -1 193 -41 359 -65 265
-143 416 -233 450 -42 16 -88 13 -122 -8z m130 -236 c39 -83 67 -176 94 -305
33 -165 36 -212 12 -264 -19 -44 -64 -96 -82 -96 -5 0 -9 56 -9 125 0 120 -1
127 -25 150 -30 30 -64 32 -99 4 -26 -20 -26 -22 -26 -150 0 -76 -4 -129 -10
-129 -19 0 -78 69 -90 106 -16 46 -8 131 26 284 31 138 83 288 120 343 26 39
27 40 42 21 8 -10 29 -50 47 -89z"/>
<path d="M1669 499 c-221 -164 -431 -358 -444 -411 -6 -22 -1 -33 23 -58 17
-16 40 -30 52 -30 14 0 56 33 113 88 112 107 229 205 362 302 55 41 103 79
107 84 16 23 8 73 -15 94 -40 38 -65 28 -198 -69z"/>
</g>
</svg>
