<?xml version="1.0" standalone="no"?>
<!DOCTYPE svg PUBLIC "-//W3C//DTD SVG 20010904//EN"
 "http://www.w3.org/TR/2001/REC-SVG-20010904/DTD/svg10.dtd">
<svg version="1.0" xmlns="http://www.w3.org/2000/svg"
 width="512.000000pt" height="512.000000pt" viewBox="0 0 512.000000 512.000000"
 preserveAspectRatio="xMidYMid meet">

<g transform="translate(0.000000,512.000000) scale(0.100000,-0.100000)"
fill="#000000" stroke="none">
<path d="M1376 5104 c-74 -23 -149 -102 -173 -185 -56 -186 -166 -656 -160
-681 11 -40 48 -54 182 -68 174 -18 993 -25 1227 -11 325 20 358 29 358 104 0
42 -159 664 -181 708 -27 53 -103 117 -162 134 -75 22 -1018 21 -1091 -1z
m1064 -159 c16 -9 36 -28 44 -43 16 -32 151 -560 145 -567 -24 -23 -948 -34
-1244 -14 -88 5 -161 12 -163 13 -2 2 28 129 67 281 72 285 84 314 136 335 11
5 237 9 503 9 413 1 487 -1 512 -14z"/>
<path d="M700 4404 c-141 -22 -258 -51 -318 -80 -125 -61 -121 -169 7 -234 97
-49 323 -99 589 -131 l102 -12 0 -212 c0 -307 9 -330 207 -542 l124 -132 -3
-63 -3 -62 -380 -205 c-209 -114 -401 -218 -426 -233 -119 -70 -228 -209 -276
-351 l-28 -82 -3 -889 c-3 -983 -5 -951 61 -1038 46 -60 109 -105 174 -124 52
-15 83 -15 402 0 962 45 1622 81 1801 96 105 9 123 14 207 54 97 47 241 134
410 248 149 101 148 98 133 375 -9 177 -15 224 -31 254 -27 54 -72 82 -138 87
-51 3 -66 -1 -174 -53 -65 -31 -120 -55 -122 -53 -1 2 125 221 281 488 233
399 288 487 311 496 20 8 165 6 538 -7 281 -9 511 -17 512 -18 1 -1 -187 -324
-418 -720 -351 -601 -424 -721 -448 -731 -19 -8 -51 -9 -94 -5 -69 8 -118 -8
-131 -40 -13 -34 -6 -72 18 -94 22 -21 35 -23 133 -24 122 -2 164 12 219 75
17 19 223 365 459 769 415 709 430 736 430 786 0 58 -22 96 -73 126 -28 17
-78 20 -449 32 -674 22 -710 22 -763 -1 -57 -26 -93 -68 -161 -185 l-54 -93
-12 108 c-25 231 -122 419 -288 559 -99 83 -209 134 -483 222 -153 50 -242 84
-242 92 0 16 2 16 139 -3 106 -14 117 -14 158 1 25 10 55 31 71 53 25 33 27
43 32 165 l5 129 66 27 c82 32 109 55 109 93 0 18 -38 103 -95 212 l-95 183 0
109 0 110 163 18 c478 52 726 131 737 232 8 72 -34 120 -132 153 -75 24 -286
67 -380 76 -63 7 -68 6 -92 -18 -31 -31 -34 -75 -8 -107 15 -19 41 -26 158
-46 188 -31 209 -35 193 -44 -49 -27 -393 -82 -660 -105 -734 -63 -1651 -20
-2094 98 l-50 14 55 12 c30 7 100 19 154 27 108 16 130 24 146 54 17 32 11 60
-19 91 -33 33 -31 32 -161 13z m797 -490 l32 -5 -33 -47 c-18 -26 -39 -63 -45
-82 -7 -19 -19 -134 -27 -254 -8 -121 -16 -221 -17 -223 -8 -8 -129 139 -147
179 -17 38 -20 66 -20 246 l0 203 113 -6 c61 -3 126 -8 144 -11z m1033 -116
l0 -121 80 -154 81 -153 -48 -20 c-100 -42 -103 -46 -103 -217 l0 -132 -27 4
c-98 16 -250 35 -287 35 -31 0 -48 -6 -63 -22 -20 -22 -22 -36 -25 -233 -4
-235 -12 -269 -70 -305 -76 -48 -238 0 -336 100 -59 60 -106 138 -137 227 -23
63 -25 83 -24 253 0 102 6 294 13 427 14 264 17 275 79 313 18 11 48 20 68 20
59 0 98 -35 158 -142 61 -109 88 -130 140 -108 31 13 37 23 127 227 l49 112
90 4 c49 1 123 4 163 5 l72 2 0 -122z m-516 80 c-14 -49 -20 -51 -48 -14 l-27
36 41 0 c38 0 41 -2 34 -22z m-526 -1219 c45 -94 65 -123 130 -188 121 -122
257 -179 402 -169 153 11 247 111 273 289 8 60 15 79 26 77 39 -8 161 -299
196 -468 21 -97 42 -307 51 -492 l7 -148 -576 0 -576 0 -5 43 c-3 23 -8 110
-10 192 -11 303 -70 554 -180 773 l-36 71 118 64 c64 36 119 65 122 66 3 0 29
-50 58 -110z m1210 -115 c150 -53 262 -137 344 -258 91 -133 117 -247 118
-511 l0 -180 -93 -160 -92 -159 -2 104 c-2 58 -5 115 -8 127 -9 37 -54 53
-148 53 l-83 0 -12 213 c-20 349 -50 520 -127 719 -19 49 -35 92 -35 95 0 5
20 -1 138 -43z m-1612 -56 c105 -208 150 -417 162 -750 l7 -176 -102 -4 c-153
-5 -147 6 -151 -268 l-3 -220 -275 0 -274 0 0 463 c0 501 3 535 56 640 15 28
57 81 93 117 55 54 98 83 256 168 105 56 191 102 192 102 2 0 19 -33 39 -72z
m164 -1143 c0 -46 4 -60 25 -80 33 -33 70 -32 106 4 24 25 29 37 29 80 l0 51
580 0 580 0 0 -59 c0 -52 3 -62 26 -80 34 -27 66 -27 99 2 20 17 27 34 32 80
l6 57 38 0 39 0 0 -150 0 -150 -26 10 c-14 6 -37 10 -52 10 -26 0 -331 -126
-389 -161 -18 -12 -57 -59 -91 -113 l-60 -93 -123 -6 c-68 -4 -301 -10 -516
-13 l-393 -7 0 330 c0 181 3 333 7 336 3 4 24 7 45 7 l38 0 0 -55z m2064 -457
c3 -46 8 -131 11 -189 l6 -106 -138 -90 c-322 -210 -350 -223 -482 -234 -192
-16 -719 -43 -2001 -105 -119 -6 -127 -5 -169 18 -31 16 -52 38 -68 68 -23 42
-23 49 -23 352 l0 308 275 0 275 0 0 -135 c0 -83 5 -144 12 -160 25 -55 12
-54 653 -39 531 13 592 16 613 32 13 9 51 62 86 117 l63 99 141 62 c77 34 143
59 146 56 3 -3 6 -36 6 -74 0 -63 3 -72 29 -99 16 -16 38 -29 49 -29 11 0 123
51 249 114 125 63 235 115 245 115 13 1 17 -13 22 -81z"/>
<path d="M4095 3135 c-80 -16 -108 -24 -184 -54 -73 -30 -190 -100 -201 -122
-28 -52 8 -119 64 -119 15 0 57 18 93 40 241 145 535 145 776 0 89 -54 138
-53 162 2 18 45 7 76 -39 110 -60 45 -194 106 -283 129 -102 27 -292 34 -388
14z"/>
<path d="M4126 2875 c-81 -17 -205 -73 -241 -109 -33 -33 -33 -79 0 -111 13
-14 33 -25 44 -25 10 0 57 18 103 40 45 22 110 45 143 51 106 20 236 -6 338
-65 55 -32 81 -33 112 -1 33 32 34 84 3 112 -31 28 -131 77 -198 97 -78 24
-220 29 -304 11z"/>
<path d="M4185 2620 c-135 -28 -195 -93 -149 -158 28 -40 55 -43 134 -16 80
28 119 27 195 -7 50 -22 83 -15 109 23 22 30 20 60 -4 91 -40 50 -194 87 -285
67z"/>
</g>
</svg>
