<?xml version="1.0" standalone="no"?>
<!DOCTYPE svg PUBLIC "-//W3C//DTD SVG 20010904//EN"
 "http://www.w3.org/TR/2001/REC-SVG-20010904/DTD/svg10.dtd">
<svg version="1.0" xmlns="http://www.w3.org/2000/svg"
 width="512.000000pt" height="512.000000pt" viewBox="0 0 512.000000 512.000000"
 preserveAspectRatio="xMidYMid meet">

<g transform="translate(0.000000,512.000000) scale(0.100000,-0.100000)"
fill="#000000" stroke="none">
<path d="M2471 5017 l-233 -102 6 -160 c4 -88 9 -214 13 -280 l6 -121 -214
-93 c-285 -125 -323 -145 -380 -198 -86 -80 -139 -225 -124 -337 9 -63 54
-186 68 -186 6 0 188 78 406 174 218 96 402 176 410 178 9 2 33 -40 71 -126
72 -161 89 -191 140 -249 114 -129 339 -215 496 -189 l51 9 6 -121 c7 -120 27
-231 67 -365 l20 -70 -51 -103 -51 -103 -472 -139 c-395 -116 -513 -155 -588
-194 -17 -8 -7 95 13 138 36 80 112 138 202 154 l37 7 0 75 0 74 -42 -6 c-65
-9 -108 -23 -165 -55 l-53 -29 0 22 c1 33 37 108 68 141 33 35 103 72 155 81
l37 7 0 75 0 74 -42 -6 c-102 -14 -171 -47 -244 -116 l-53 -50 -47 46 c-26 26
-72 60 -103 76 -57 28 -165 55 -182 44 -5 -3 -9 -36 -9 -74 l0 -68 51 -11 c28
-6 60 -16 72 -22 32 -16 96 -80 113 -110 16 -31 35 -112 26 -107 -111 59 -229
97 -253 82 -5 -3 -9 -36 -9 -74 l0 -68 50 -11 c66 -14 97 -31 142 -78 59 -61
71 -100 76 -248 3 -122 2 -134 -23 -200 -37 -94 -43 -213 -18 -310 14 -55 22
-69 35 -67 9 1 362 93 783 202 421 110 771 200 778 200 7 0 44 -90 85 -208
l72 -207 0 -483 0 -482 -62 31 c-35 17 -152 85 -261 151 -217 131 -311 179
-402 201 -141 36 -256 31 -432 -19 l-93 -26 -87 82 c-194 182 -503 391 -778
525 -171 83 -362 162 -371 153 -3 -4 -16 -35 -29 -71 l-23 -64 111 -43 c140
-54 400 -186 535 -270 193 -121 514 -374 495 -390 -4 -4 -66 -46 -136 -94
-160 -110 -285 -169 -430 -206 -159 -40 -297 -50 -665 -50 l-322 0 0 80 c0
103 14 167 50 224 34 52 112 102 177 112 l43 6 0 74 c0 70 -1 74 -23 74 -45 0
-143 -31 -191 -61 -27 -16 -50 -28 -51 -27 -8 9 25 103 48 137 32 48 113 98
174 107 l43 6 0 74 c0 86 0 86 -105 59 -75 -20 -157 -68 -201 -119 l-34 -39
-55 52 c-63 60 -157 107 -232 117 l-53 7 0 -77 c0 -67 2 -76 18 -76 35 0 108
-31 145 -61 44 -36 83 -100 92 -151 l7 -37 -78 39 c-46 23 -101 43 -131 46
l-53 7 0 -74 0 -74 52 -13 c91 -21 164 -85 194 -169 7 -22 13 -81 14 -140 l0
-103 -285 0 -285 0 0 -75 0 -75 693 0 c689 0 836 5 987 36 184 38 308 94 522
236 261 173 345 207 535 215 177 8 229 -9 467 -154 317 -194 403 -238 580
-298 229 -78 402 -95 964 -95 l372 0 0 75 0 75 -125 0 -125 0 0 245 0 245 -75
0 -75 0 0 -245 0 -245 -177 0 c-98 0 -195 3 -215 6 l-38 7 0 598 0 599 -75 0
-75 0 0 -596 0 -597 -50 7 c-28 4 -99 19 -158 34 l-107 27 -5 545 -5 545 -42
109 -41 108 444 219 c245 121 450 217 456 213 19 -12 86 -165 113 -259 50
-174 50 -348 0 -481 -23 -62 -25 -78 -25 -255 l0 -189 75 0 75 0 0 173 c0 159
2 180 25 248 84 245 36 545 -134 846 -28 49 -108 219 -179 378 -209 468 -319
702 -358 760 -53 80 -162 177 -246 218 -131 65 -259 82 -387 52 -35 -9 -65
-14 -67 -13 -1 2 -50 110 -107 241 l-106 239 57 25 c147 66 673 297 719 316
29 12 53 27 53 33 0 29 -69 144 -112 187 -87 87 -228 133 -353 116 -36 -5
-144 -46 -317 -122 l-262 -115 -196 199 -195 198 -234 -102z m469 -358 c0 -3
-118 -58 -262 -122 l-263 -116 -6 67 c-4 37 -10 126 -13 197 l-6 130 138 61
137 62 138 -137 c75 -74 137 -139 137 -142z m917 127 c50 -28 79 -54 68 -65
-10 -9 -2185 -969 -2219 -979 -18 -5 -18 -1 -12 49 9 67 50 144 96 180 45 35
1865 836 1911 841 48 4 122 -8 156 -26z m-574 -812 l108 -245 -51 -56 c-28
-31 -64 -82 -80 -113 -31 -61 -47 -70 -158 -85 -48 -6 -165 16 -214 41 -57 29
-126 86 -158 130 -37 53 -152 306 -142 316 7 6 571 256 582 257 3 1 54 -109
113 -245z m610 -337 c83 -39 162 -106 206 -175 34 -54 146 -289 299 -632 55
-124 114 -256 131 -293 l30 -68 -431 -215 c-237 -118 -436 -213 -441 -211 -6
2 -20 32 -32 68 l-22 65 200 440 c197 429 201 440 201 504 -1 112 -65 208
-173 258 -105 49 -253 11 -325 -83 -17 -23 -58 -98 -90 -168 -32 -70 -62 -127
-66 -127 -12 0 -31 110 -37 215 -16 298 138 475 400 461 63 -3 92 -11 150 -39z
m-52 -423 c32 -31 50 -81 42 -116 -8 -34 -404 -901 -417 -914 -11 -11 -945
-258 -952 -252 -6 6 -85 261 -81 264 1 2 165 51 362 109 198 59 389 115 425
126 l65 19 175 362 c173 358 203 411 244 429 39 16 105 4 137 -27z m-1514
-1194 l41 -130 -37 -10 c-137 -37 -267 -70 -275 -70 -14 0 1 105 22 154 34 75
149 184 198 186 6 0 29 -58 51 -130z"/>
<path d="M0 2685 l0 -74 38 -7 c110 -20 198 -104 217 -208 l8 -38 -56 31 c-43
25 -158 60 -199 61 -5 0 -8 -34 -8 -75 l0 -75 38 -6 c92 -15 188 -98 212 -182
5 -20 10 -66 10 -100 l0 -64 -130 7 -130 8 0 -76 0 -75 128 -6 c274 -15 568
-60 772 -120 46 -13 88 -23 91 -20 9 5 43 133 37 139 -13 13 -330 86 -460 106
l-148 23 0 82 c0 92 14 135 61 188 41 47 85 73 147 87 l52 11 0 68 c0 38 -3
71 -7 73 -19 11 -124 -15 -185 -47 -75 -38 -80 -34 -57 35 28 81 108 151 195
169 l54 11 0 69 c0 38 -3 71 -7 73 -17 11 -121 -14 -178 -42 -33 -17 -82 -52
-108 -79 l-49 -50 -41 45 c-64 70 -149 113 -249 126 l-48 7 0 -75z"/>
<path d="M2540 495 l0 -75 75 0 75 0 0 75 0 75 -75 0 -75 0 0 -75z"/>
<path d="M2840 495 l0 -75 75 0 75 0 0 75 0 75 -75 0 -75 0 0 -75z"/>
<path d="M0 75 l0 -75 1000 0 1000 0 0 75 0 75 -1000 0 -1000 0 0 -75z"/>
<path d="M2152 78 l3 -73 1483 -3 1482 -2 0 75 0 75 -1485 0 -1486 0 3 -72z"/>
</g>
</svg>
