<?xml version="1.0" standalone="no"?>
<!DOCTYPE svg PUBLIC "-//W3C//DTD SVG 20010904//EN"
 "http://www.w3.org/TR/2001/REC-SVG-20010904/DTD/svg10.dtd">
<svg version="1.0" xmlns="http://www.w3.org/2000/svg"
 width="512.000000pt" height="512.000000pt" viewBox="0 0 512.000000 512.000000"
 preserveAspectRatio="xMidYMid meet">

<g transform="translate(0.000000,512.000000) scale(0.100000,-0.100000)"
fill="#000000" stroke="none">
<path d="M2722 5042 l-244 -66 7 -220 c4 -122 8 -225 9 -230 1 -11 -12 -15
-225 -72 l-177 -46 20 -72 c11 -39 21 -71 22 -72 0 -1 98 25 216 57 118 32
215 57 217 56 1 -2 16 -54 33 -117 35 -130 51 -160 116 -220 50 -46 107 -75
169 -84 l40 -7 -3 -79 c-2 -50 2 -99 11 -129 l14 -50 -89 -134 -90 -135 -354
-217 c-195 -119 -356 -220 -359 -225 -3 -4 19 -42 49 -83 l54 -75 -781 -487
c-430 -268 -783 -483 -784 -479 -8 22 -84 134 -91 134 -14 0 -122 -72 -118
-78 2 -4 22 -37 45 -75 l41 -67 -78 -50 c-42 -27 -81 -51 -85 -53 -10 -3 64
-127 75 -127 4 0 43 22 85 50 60 38 81 46 89 37 6 -7 103 -162 214 -344 112
-183 208 -333 213 -333 14 0 117 64 117 73 0 4 -92 158 -205 342 -113 184
-207 340 -210 347 -3 8 283 192 813 522 l817 509 80 -1 c55 -1 96 4 130 16 42
15 457 260 548 324 16 11 29 19 31 17 1 -2 30 -109 64 -237 l61 -232 -239
-385 -240 -386 -2 -477 -3 -476 -140 -98 c-130 -92 -140 -101 -143 -133 l-3
-35 -137 0 -137 0 -47 93 c-45 87 -51 95 -129 150 l-82 59 -132 -52 -132 -52
-47 -112 -47 -111 -154 -104 -154 -103 -24 -67 c-14 -36 -35 -92 -47 -123 -12
-32 -27 -58 -35 -58 -7 0 -64 87 -126 194 l-114 194 -95 39 -95 39 -25 68 -25
69 -85 37 -85 37 -30 84 c-16 46 -34 83 -38 82 -4 0 -69 -27 -143 -59 l-134
-59 -38 -120 -38 -120 -42 -3 -42 -3 0 -75 0 -75 97 3 97 3 44 137 c38 122 46
140 72 153 41 21 45 20 62 -23 13 -33 23 -41 99 -74 l84 -36 23 -64 c13 -34
28 -68 35 -74 7 -6 50 -26 97 -44 47 -18 90 -37 95 -41 6 -4 64 -100 130 -213
l120 -205 110 -1 110 0 54 149 54 150 149 101 c82 56 154 111 162 123 7 12 28
59 47 104 l34 83 67 26 66 26 34 -25 c22 -17 54 -66 93 -141 l60 -116 748 0
747 0 0 75 0 75 -147 0 -148 0 3 510 3 509 169 272 c156 252 169 270 176 243
4 -16 37 -142 73 -280 l66 -251 377 -346 c207 -190 378 -350 380 -354 2 -4 2
-74 0 -155 l-3 -148 -400 0 -399 0 0 -75 0 -75 690 0 690 0 0 75 0 75 -136 0
c-113 0 -135 2 -131 14 3 8 60 87 126 175 67 89 124 174 128 189 13 48 6 126
-15 168 -13 25 -84 98 -188 194 l-167 154 -49 -53 c-26 -29 -48 -55 -47 -59 0
-4 72 -72 159 -151 89 -81 161 -155 165 -168 3 -13 0 -33 -6 -46 -12 -22 -243
-333 -262 -352 -6 -7 -7 43 -3 146 l6 156 -260 238 c-143 131 -260 241 -260
245 0 3 40 46 90 95 l89 89 23 -19 c13 -11 49 -44 80 -74 l58 -55 50 49 c28
27 49 55 48 60 -2 6 -77 79 -168 163 l-165 151 -186 703 -186 703 24 40 c44
73 115 219 135 275 10 31 19 84 19 120 l1 65 235 145 c129 80 237 150 240 157
5 12 -57 122 -69 123 -3 0 -115 -68 -248 -151 -132 -83 -246 -148 -253 -145
-7 3 -43 31 -82 61 -80 63 -194 125 -275 150 -30 9 -67 23 -82 31 -58 31 -117
47 -202 53 l-90 6 -34 128 c-19 70 -33 130 -31 132 2 2 98 29 214 60 115 30
211 57 213 59 3 4 -26 125 -34 137 -2 3 -92 -18 -201 -47 -109 -29 -199 -51
-202 -48 -3 2 -51 93 -107 201 -56 109 -106 198 -111 199 -4 1 -118 -28 -251
-64z m251 -244 c39 -76 63 -134 57 -138 -15 -9 -380 -104 -384 -99 -2 2 -5 71
-7 153 l-4 149 120 33 c66 18 127 33 135 33 9 0 40 -48 83 -131z m118 -440
l33 -127 -64 -59 c-41 -38 -77 -63 -97 -67 -47 -9 -109 11 -150 49 -30 27 -40
49 -68 146 -18 63 -28 117 -23 118 5 2 80 23 166 46 106 29 159 39 164 32 3
-6 21 -68 39 -138z m375 -256 c59 -30 122 -105 139 -166 47 -170 54 -201 47
-207 -6 -6 -169 -69 -177 -69 -2 0 3 16 11 35 19 47 17 132 -5 181 -39 85
-145 143 -235 129 -57 -9 -121 -49 -152 -93 l-26 -37 7 40 c13 82 89 170 171
201 55 20 167 13 220 -14z m371 -186 c80 -62 116 -113 107 -152 -12 -52 -77
-195 -84 -187 -4 4 -29 89 -54 188 -26 99 -50 189 -53 200 -5 16 -3 18 8 9 8
-6 42 -32 76 -58z m-513 -77 c51 -40 43 -59 -161 -364 l-188 -279 -135 -83
c-74 -45 -139 -83 -145 -83 -5 0 -19 15 -31 33 -11 17 -28 44 -38 59 l-17 26
133 82 133 81 175 264 c198 298 213 312 274 264z m376 -261 c0 -2 101 -385
224 -851 l223 -848 47 -48 c58 -58 58 -55 -51 -164 l-79 -78 -75 73 -76 73
-123 480 c-68 264 -126 483 -129 487 -9 10 -141 -24 -141 -36 0 -6 15 -68 34
-137 l34 -126 -219 -349 c-182 -291 -218 -355 -219 -386 l0 -38 -125 0 -125 0
0 93 0 93 236 379 c130 209 240 388 245 397 9 16 -3 66 -161 655 -7 29 -3 40
48 114 l57 82 180 68 c171 64 195 72 195 67z m-1180 -567 c22 -33 40 -63 40
-66 0 -16 -109 -55 -155 -55 -57 0 -144 35 -129 50 8 8 192 126 201 129 1 1
20 -26 43 -58z m630 -1922 l0 -391 -29 -29 -29 -29 -226 0 c-124 0 -226 2
-226 4 0 3 59 46 130 96 l130 91 0 325 0 324 125 0 125 0 0 -391z"/>
<path d="M3000 255 l0 -75 75 0 75 0 0 75 0 75 -75 0 -75 0 0 -75z"/>
<path d="M3300 255 l0 -75 75 0 75 0 0 75 0 75 -75 0 -75 0 0 -75z"/>
</g>
</svg>
