<?xml version="1.0" standalone="no"?>
<!DOCTYPE svg PUBLIC "-//W3C//DTD SVG 20010904//EN"
 "http://www.w3.org/TR/2001/REC-SVG-20010904/DTD/svg10.dtd">
<svg version="1.0" xmlns="http://www.w3.org/2000/svg"
 width="512.000000pt" height="512.000000pt" viewBox="0 0 512.000000 512.000000"
 preserveAspectRatio="xMidYMid meet">

<g transform="translate(0.000000,512.000000) scale(0.100000,-0.100000)"
fill="#000000" stroke="none">
<path d="M1239 4904 c-64 -19 -141 -90 -169 -155 -16 -39 -23 -79 -27 -165
l-6 -114 -79 0 c-75 0 -81 -2 -109 -29 -40 -40 -40 -89 0 -133 28 -32 30 -32
134 -36 l104 -4 6 -157 c8 -218 36 -300 138 -406 l49 -50 -73 -35 c-90 -42
-208 -156 -254 -245 -63 -121 -63 -119 -63 -811 0 -691 1 -697 61 -820 42 -85
113 -170 186 -224 l62 -45 0 -322 1 -322 -487 -3 c-474 -3 -489 -4 -534 -24
-65 -30 -123 -86 -153 -147 -22 -43 -26 -64 -26 -142 0 -78 4 -99 26 -142 30
-61 88 -117 153 -147 39 -18 64 -21 174 -21 129 0 129 0 153 28 33 38 33 96 0
134 -23 26 -29 28 -133 33 -118 6 -145 15 -168 60 -28 54 -10 125 38 152 17
10 150 14 565 18 l544 5 24 28 24 28 0 356 0 355 23 -6 c12 -3 84 -6 160 -6
l138 0 -3 -362 -3 -363 -26 -56 c-37 -79 -90 -133 -167 -171 -62 -31 -74 -33
-199 -38 -127 -5 -134 -6 -159 -32 -40 -39 -38 -102 5 -140 30 -27 34 -28 144
-28 61 0 142 7 178 14 181 39 341 185 401 365 20 62 22 89 26 438 l4 373 178
0 179 0 3 -474 3 -473 35 -69 c117 -230 437 -230 558 0 l27 51 3 622 c3 689 3
685 -61 808 -47 89 -146 184 -237 227 -110 53 -151 58 -450 58 l-270 0 0 128
0 127 492 -3 c320 -1 511 1 544 8 28 6 72 24 97 40 l46 29 6 -47 c26 -209 112
-382 263 -524 144 -136 314 -207 515 -216 l117 -5 0 -261 0 -261 -59 -18 c-32
-10 -85 -36 -117 -57 -34 -23 -205 -185 -406 -387 -332 -332 -348 -350 -348
-386 0 -55 45 -102 99 -102 40 0 45 5 398 356 331 330 362 358 416 378 70 26
164 28 233 5 43 -15 89 -57 409 -375 236 -234 370 -360 388 -364 76 -19 141
46 123 122 -9 38 -693 720 -760 758 -27 16 -76 38 -110 51 l-61 22 -3 644 -2
645 108 5 c187 9 332 72 474 207 96 90 156 185 199 311 31 89 33 104 33 230 0
213 -19 241 -174 259 -208 23 -427 -45 -573 -179 -30 -28 -58 -50 -61 -50 -3
0 -6 114 -6 253 l0 252 70 73 c50 52 80 95 109 155 51 107 65 171 64 287 -2
153 -49 275 -155 402 -47 57 -151 128 -186 128 -67 0 -216 -142 -276 -263 -51
-104 -69 -192 -63 -307 8 -164 68 -299 180 -410 57 -57 57 -57 57 -118 l0 -61
-62 47 c-141 106 -318 156 -483 135 -57 -7 -96 -17 -113 -30 -40 -29 -54 -96
-49 -233 6 -188 61 -313 198 -451 62 -63 92 -85 170 -122 106 -51 156 -64 264
-74 l75 -6 0 -195 0 -194 -65 60 c-168 157 -415 240 -635 214 -91 -11 -100
-10 -100 17 0 32 -51 119 -90 155 -22 19 -58 45 -82 58 -42 22 -51 23 -413 28
l-369 5 -168 230 c-109 151 -185 245 -220 274 -29 24 -54 46 -55 50 -2 3 16
15 39 26 56 26 157 127 190 191 46 85 58 153 58 316 l0 148 69 0 c93 0 126 8
156 38 36 35 35 99 -1 136 -25 24 -33 26 -109 26 l-83 0 -4 118 c-5 135 -22
183 -89 251 -75 75 -109 81 -432 80 -214 0 -293 -4 -328 -15z m622 -214 c29
-29 30 -31 27 -122 l-3 -93 -320 0 -320 0 -3 65 c-4 87 4 127 33 156 l24 24
266 0 267 0 29 -30z m2254 -181 c131 -146 130 -385 -2 -547 l-36 -43 -34 33
c-19 18 -51 67 -71 107 -35 72 -37 79 -37 175 1 81 5 112 24 159 22 56 93 157
110 157 5 0 25 -19 46 -41z m-2257 -396 c-3 -153 -4 -160 -32 -211 -53 -94
-138 -145 -246 -146 -116 -1 -214 63 -261 169 -19 42 -23 74 -27 198 l-5 147
288 0 287 0 -4 -157z m1797 -533 c84 -29 162 -86 217 -157 60 -80 89 -158 96
-257 l5 -79 -73 7 c-126 13 -226 60 -310 146 -82 85 -130 199 -130 314 l0 59
68 -6 c37 -3 94 -15 127 -27z m-2051 -133 c29 -14 72 -42 95 -62 23 -21 123
-150 223 -286 140 -192 187 -250 211 -258 19 -7 165 -11 394 -11 399 0 408 -1
438 -60 20 -40 19 -79 -5 -118 -38 -62 -42 -62 -542 -62 l-453 0 -72 83 c-138
158 -149 167 -197 167 -58 0 -96 -38 -96 -97 0 -34 7 -49 45 -91 l45 -50 0
-231 0 -231 -300 0 -301 0 3 538 3 537 28 53 c53 101 136 170 236 199 68 19
179 10 245 -20z m3168 -187 c20 0 21 -4 15 -87 -10 -151 -68 -275 -176 -375
-105 -98 -241 -152 -369 -146 l-67 3 2 76 c2 91 14 142 55 226 58 119 177 225
307 274 55 20 173 40 199 33 8 -2 23 -4 34 -4z m-1309 -695 c291 -52 506 -309
507 -607 l0 -78 -83 0 c-165 0 -312 63 -432 184 -111 112 -169 241 -181 401
-10 121 11 132 189 100z m-953 -656 c77 -36 121 -77 161 -151 l34 -63 3 -601
c2 -385 -1 -611 -7 -628 -27 -69 -128 -84 -185 -27 l-31 31 -2 523 c-2 386 -6
528 -15 545 -27 52 -31 52 -541 52 -447 0 -479 1 -540 20 -125 39 -232 144
-276 273 l-20 57 682 -2 682 -3 55 -26z"/>
<path d="M770 373 c-28 -25 -33 -36 -33 -73 0 -37 5 -48 33 -73 28 -25 38 -28
74 -24 116 16 116 178 0 194 -36 4 -46 1 -74 -24z"/>
</g>
</svg>
