<?xml version="1.0" standalone="no"?>
<!DOCTYPE svg PUBLIC "-//W3C//DTD SVG 20010904//EN"
 "http://www.w3.org/TR/2001/REC-SVG-20010904/DTD/svg10.dtd">
<svg version="1.0" xmlns="http://www.w3.org/2000/svg"
 width="512.000000pt" height="512.000000pt" viewBox="0 0 512.000000 512.000000"
 preserveAspectRatio="xMidYMid meet">

<g transform="translate(0.000000,512.000000) scale(0.100000,-0.100000)"
fill="#000000" stroke="none">
<path d="M1095 4910 c-256 -55 -481 -180 -688 -379 -153 -148 -294 -340 -383
-523 -33 -67 -27 -104 19 -126 31 -15 34 -14 157 61 204 124 409 163 625 118
50 -10 176 -50 280 -89 227 -83 310 -104 430 -104 202 -1 382 90 581 291 l81
82 31 -35 c210 -240 355 -658 401 -1156 5 -52 8 -96 6 -98 -1 -1 -59 77 -128
175 -69 98 -152 210 -184 250 -32 39 -78 96 -101 127 -24 31 -70 79 -103 106
-415 345 -1027 162 -1357 -407 -55 -93 -56 -135 -4 -162 28 -15 45 -10 119 35
121 73 252 103 368 84 38 -6 116 -29 175 -52 269 -105 346 -121 462 -98 92 18
206 81 294 163 42 39 79 66 82 61 4 -5 25 -34 48 -64 22 -30 105 -148 183
-262 78 -114 146 -210 151 -213 6 -3 10 -19 10 -35 0 -27 -3 -28 -66 -39 -200
-35 -398 -154 -520 -312 -134 -175 -195 -387 -173 -607 20 -198 115 -393 254
-521 l45 -41 0 -190 c0 -177 1 -191 20 -210 19 -19 33 -20 514 -20 471 0 495
1 517 19 24 19 24 23 27 212 l3 193 72 76 c105 112 162 215 204 371 24 89 24
309 0 398 -43 156 -99 259 -205 372 -128 136 -282 222 -460 256 l-90 17 -7
106 -7 107 86 294 c119 409 125 426 180 498 81 104 215 233 301 287 25 16 22
9 -23 -46 -86 -107 -190 -327 -177 -377 8 -35 38 -49 175 -82 197 -47 335 -64
485 -58 257 10 372 72 580 313 129 149 191 203 280 245 90 42 167 59 295 66
97 5 119 9 138 26 52 48 14 99 -191 251 -292 217 -587 357 -847 402 -130 22
-355 15 -458 -15 -311 -91 -546 -350 -667 -736 -19 -60 -44 -150 -54 -200 -23
-106 -123 -445 -132 -445 -4 0 -9 24 -13 53 -24 183 -113 480 -195 651 -54
111 -143 251 -214 333 -24 28 -83 103 -131 167 -165 220 -345 348 -591 422
-78 23 -112 27 -255 30 -136 3 -181 0 -255 -16z m446 -144 c114 -29 185 -60
281 -121 75 -48 240 -208 270 -261 l17 -30 -60 -67 c-166 -183 -339 -278 -511
-278 -108 0 -177 17 -398 98 -269 100 -298 106 -485 107 -166 1 -220 -8 -334
-56 -24 -10 -46 -16 -49 -14 -11 12 102 151 212 262 185 184 378 302 584 353
109 28 113 28 253 30 104 1 143 -3 220 -23z m2509 -242 c227 -43 479 -160 733
-342 l79 -57 -96 -22 c-190 -44 -297 -117 -477 -324 -210 -242 -302 -286 -574
-276 -137 6 -378 46 -399 67 -23 23 92 209 178 288 73 66 121 94 221 128 70
24 98 28 224 30 79 2 152 6 163 10 28 8 42 51 28 85 -13 30 -31 39 -130 66
-94 25 -350 25 -440 -1 -146 -42 -366 -169 -449 -260 -36 -39 -41 -32 -19 27
117 313 317 515 570 578 94 23 277 24 388 3z m-2260 -896 c115 -26 247 -115
331 -221 l39 -49 -21 -26 c-39 -50 -134 -124 -199 -156 -58 -27 -75 -31 -150
-30 -80 0 -95 4 -240 61 -197 77 -210 81 -300 92 -70 9 -176 3 -246 -15 -26
-7 -25 -4 22 50 27 32 85 87 129 122 201 162 421 221 635 172z m870 -1953 l0
-815 -40 0 -40 0 0 373 0 372 -35 65 c-19 35 -35 68 -35 73 0 5 9 22 20 38 31
42 45 125 31 175 -44 162 -239 226 -366 122 -159 -132 -69 -396 136 -400 l50
-1 30 -58 29 -58 0 -351 0 -350 -55 0 -55 0 0 171 0 171 -66 61 c-160 149
-235 316 -236 522 0 50 5 117 12 150 40 196 181 381 360 475 72 37 197 78 243
79 16 1 17 -44 17 -814z m285 783 c177 -58 324 -186 409 -354 48 -96 66 -165
73 -270 14 -215 -61 -400 -224 -560 l-73 -70 0 -172 0 -172 -50 0 -50 0 0 255
0 255 39 85 40 85 38 0 c22 0 62 12 92 26 212 106 137 426 -100 426 -191 0
-295 -207 -181 -360 l24 -34 -46 -98 -46 -98 0 -271 0 -271 -45 0 -45 0 0 816
0 816 43 -7 c23 -4 69 -16 102 -27z m-552 -488 c77 -61 9 -181 -83 -148 -32
11 -60 52 -60 88 0 12 13 35 29 51 35 35 77 38 114 9z m801 -139 c30 -26 38
-58 22 -96 -26 -62 -89 -74 -137 -26 -47 47 -36 111 23 136 35 14 64 10 92
-14z"/>
<path d="M1439 2588 c-16 -5 -32 -22 -39 -39 -11 -26 -10 -34 7 -57 23 -31
349 -222 379 -222 35 0 67 33 67 69 0 18 -6 38 -14 45 -16 16 -324 195 -354
206 -11 4 -32 3 -46 -2z"/>
<path d="M3963 2585 c-50 -21 -315 -176 -340 -198 -13 -12 -23 -32 -23 -47 0
-33 38 -70 71 -70 13 1 103 47 199 103 190 112 210 131 180 184 -20 35 -49 44
-87 28z"/>
<path d="M1250 1863 c-49 -18 -64 -68 -34 -111 15 -22 19 -22 232 -22 119 0
222 4 228 8 21 13 36 54 29 79 -11 44 -54 53 -257 52 -101 0 -190 -3 -198 -6z"/>
<path d="M3800 1863 c-50 -18 -68 -84 -32 -116 16 -15 47 -17 233 -17 118 0
219 4 225 8 46 30 35 103 -18 121 -32 11 -380 14 -408 4z"/>
<path d="M1588 1218 c-198 -114 -219 -135 -181 -186 37 -50 64 -43 249 64 93
53 175 103 182 112 30 38 -5 112 -54 112 -11 0 -99 -46 -196 -102z"/>
<path d="M3629 1302 c-30 -25 -31 -78 0 -103 12 -10 93 -59 180 -109 170 -97
208 -108 235 -68 21 30 20 71 -1 90 -34 30 -352 208 -371 208 -11 0 -30 -8
-43 -18z"/>
<path d="M2242 580 c-31 -13 -42 -49 -42 -139 0 -121 34 -192 110 -231 37 -19
60 -20 414 -20 240 0 385 4 403 11 38 14 92 67 109 106 9 21 14 70 14 136 0
156 51 142 -514 144 -270 1 -481 -2 -494 -7z m868 -174 c0 -79 15 -76 -385
-76 l-354 0 -15 22 c-16 23 -22 79 -9 91 3 4 177 7 385 7 l378 0 0 -44z"/>
</g>
</svg>
