<?xml version="1.0" standalone="no"?>
<!DOCTYPE svg PUBLIC "-//W3C//DTD SVG 20010904//EN"
 "http://www.w3.org/TR/2001/REC-SVG-20010904/DTD/svg10.dtd">
<svg version="1.0" xmlns="http://www.w3.org/2000/svg"
 width="512.000000pt" height="512.000000pt" viewBox="0 0 512.000000 512.000000"
 preserveAspectRatio="xMidYMid meet">

<g transform="translate(0.000000,512.000000) scale(0.100000,-0.100000)"
fill="#000000" stroke="none">
<path d="M2115 5106 c-39 -7 -103 -24 -142 -37 l-73 -23 -20 -61 c-35 -105
-50 -197 -50 -312 0 -323 153 -608 425 -788 240 -159 544 -203 818 -119 16 5
17 -11 17 -243 l-1 -248 -460 -390 -461 -390 -176 -5 c-265 -9 -254 -2 -621
-362 -150 -147 -276 -268 -280 -268 -4 0 -35 25 -69 55 l-61 55 -473 -467
c-260 -258 -474 -470 -475 -473 -2 -3 231 -236 517 -518 l520 -513 472 467
c260 257 474 473 476 479 1 6 -22 35 -53 64 -30 29 -55 56 -55 60 0 5 18 25
40 45 l40 36 866 0 866 0 699 691 c385 381 702 695 704 699 7 11 -104 112
-157 143 -88 51 -194 80 -298 80 -185 0 -334 -66 -473 -211 l-39 -40 -449 382
-449 381 0 249 c0 232 1 248 18 241 119 -45 363 -51 517 -11 370 95 645 391
710 763 27 153 13 322 -37 464 l-23 64 -83 28 c-364 122 -803 -9 -1043 -310
l-59 -74 0 200 0 201 -75 0 -75 0 0 -202 -1 -203 -21 30 c-51 69 -179 191
-256 242 -156 104 -304 151 -502 158 -82 3 -149 0 -195 -9z m2086 -152 c46 -8
88 -19 92 -23 5 -5 -220 -234 -500 -509 -279 -276 -511 -498 -515 -494 -5 5
-15 42 -24 83 -22 103 -14 288 16 384 68 213 207 380 399 479 174 90 345 115
532 80z m-1670 -531 c277 -274 505 -501 507 -504 4 -9 -118 -37 -193 -44 -80
-8 -223 10 -315 41 -124 41 -215 99 -315 199 -124 124 -188 238 -222 398 -23
112 -4 407 27 407 4 0 234 -224 511 -497z m1068 -1650 l432 -367 -193 -193
-193 -193 -187 0 c-104 0 -188 2 -188 5 0 3 11 22 23 43 46 73 57 126 57 279
l0 143 -471 0 c-275 0 -469 4 -467 9 3 10 739 639 749 640 3 1 200 -164 438
-366z m1132 -167 c64 -14 142 -46 153 -64 3 -5 -276 -286 -619 -625 l-625
-617 -867 0 -867 0 -66 -65 -65 -65 -288 288 -287 288 277 275 c253 252 283
278 336 298 57 21 68 21 722 21 l665 0 0 -60 c0 -105 -47 -183 -138 -227 l-57
-28 -342 -3 -343 -3 0 -74 0 -75 691 0 691 0 337 333 c360 355 389 377 511
403 74 16 103 16 181 0z m-3128 -1473 l188 -189 -366 -363 c-201 -199 -372
-361 -380 -359 -8 2 -196 184 -418 406 l-405 402 371 365 370 364 226 -219
c124 -120 311 -304 414 -407z"/>
<path d="M3020 2832 c0 -4 33 -40 73 -80 l72 -72 73 73 c39 40 72 76 72 80 0
4 -65 7 -145 7 -80 0 -145 -3 -145 -8z"/>
<path d="M3553 2423 l77 -78 77 78 78 77 -155 0 -155 0 78 -77z"/>
<path d="M1405 970 l-50 -50 53 -53 52 -52 52 52 53 53 -50 50 c-27 27 -52 50
-55 50 -3 0 -28 -23 -55 -50z"/>
<path d="M1155 720 l-50 -50 53 -53 52 -52 52 52 53 53 -50 50 c-27 27 -52 50
-55 50 -3 0 -28 -23 -55 -50z"/>
</g>
</svg>
